<?xml version="1.0" encoding="UTF-8" standalone="no"?>
<!DOCTYPE svg PUBLIC "-//W3C//DTD SVG 1.1//EN"
 "http://www.w3.org/Graphics/SVG/1.1/DTD/svg11.dtd">
<!-- Generated by graphviz version 2.26.0 (20091210.2329)
 -->
<!-- Title: models_diagram Pages: 1 -->
<svg width="440pt" height="260pt"
 viewBox="0.00 0.00 440.00 260.00" xmlns="http://www.w3.org/2000/svg" xmlns:xlink="http://www.w3.org/1999/xlink">
<g id="graph1" class="graph" transform="scale(1 1) rotate(0) translate(4 256)">
<title>models_diagram</title>
<polygon fill="white" stroke="white" points="-4,5 -4,-256 437,-256 437,5 -4,5"/>
<!-- Award -->
<g id="node1" class="node"><title>Award</title>
<ellipse fill="none" stroke="black" cx="36" cy="-162" rx="35.8982" ry="18"/>
<text text-anchor="middle" x="36" y="-156.9" font-family="Times,serif" font-size="14.00">Award</text>
</g>
<!-- Nomination -->
<g id="node3" class="node"><title>Nomination</title>
<ellipse fill="none" stroke="black" cx="73" cy="-18" rx="55.2451" ry="18"/>
<text text-anchor="middle" x="73" y="-12.9" font-family="Times,serif" font-size="14.00">Nomination</text>
</g>
<!-- Award&#45;&gt;Nomination -->
<g id="edge2" class="edge"><title>Award&#45;&gt;Nomination</title>
<path fill="none" stroke="black" d="M23.0709,-134.998C16.1607,-116.676 10.631,-92.2046 19,-72 24.1193,-59.6409 33.5917,-48.6357 43.1905,-39.8369"/>
<polygon fill="black" stroke="black" points="23.1665,-135.23 22.811,-146.19 25.0695,-139.854 26.9724,-144.478 26.9724,-144.478 26.9724,-144.478 25.0695,-139.854 31.1338,-142.765 23.1665,-135.23 23.1665,-135.23"/>
<ellipse fill="black" stroke="black" cx="46.452" cy="-37.0043" rx="4.00002" ry="4.00002"/>
</g>
<!-- Nominee -->
<g id="node4" class="node"><title>Nominee</title>
<ellipse fill="none" stroke="black" cx="73" cy="-90" rx="44.996" ry="18"/>
<text text-anchor="middle" x="73" y="-84.9" font-family="Times,serif" font-size="14.00">Nominee</text>
</g>
<!-- Award&#45;&gt;Nominee -->
<g id="edge4" class="edge"><title>Award&#45;&gt;Nominee</title>
<path fill="none" stroke="black" d="M49.8136,-135.119C52.8851,-129.142 56.1412,-122.806 59.2117,-116.831"/>
<polygon fill="black" stroke="black" points="49.7168,-135.308 41.1436,-142.145 47.4314,-139.755 45.1461,-144.202 45.1461,-144.202 45.1461,-144.202 47.4314,-139.755 49.1485,-146.259 49.7168,-135.308 49.7168,-135.308"/>
<polygon fill="black" stroke="black" points="59.2602,-116.737 67.8334,-109.899 61.5455,-112.29 63.8309,-107.843 63.8309,-107.843 63.8309,-107.843 61.5455,-112.29 59.8285,-105.786 59.2602,-116.737 59.2602,-116.737"/>
</g>
<!-- League -->
<g id="node2" class="node"><title>League</title>
<ellipse fill="none" stroke="black" cx="182" cy="-234" rx="37.8486" ry="18"/>
<text text-anchor="middle" x="182" y="-228.9" font-family="Times,serif" font-size="14.00">League</text>
</g>
<!-- Selection -->
<g id="node5" class="node"><title>Selection</title>
<ellipse fill="none" stroke="black" cx="182" cy="-90" rx="46.1459" ry="18"/>
<text text-anchor="middle" x="182" y="-84.9" font-family="Times,serif" font-size="14.00">Selection</text>
</g>
<!-- League&#45;&gt;Selection -->
<g id="edge8" class="edge"><title>League&#45;&gt;Selection</title>
<path fill="none" stroke="black" d="M176.379,-205.691C174.986,-197.442 173.695,-188.392 173,-180 171.68,-164.055 171.68,-159.945 173,-144 173.749,-134.956 175.191,-125.146 176.705,-116.4"/>
<polygon fill="black" stroke="black" points="176.39,-205.758 173.73,-216.396 177.275,-210.679 178.159,-215.6 178.159,-215.6 178.159,-215.6 177.275,-210.679 182.588,-214.804 176.39,-205.758 176.39,-205.758"/>
<ellipse fill="black" stroke="black" cx="177.444" cy="-112.335" rx="4.00001" ry="4.00001"/>
</g>
<!-- User -->
<g id="node6" class="node"><title>User</title>
<ellipse fill="none" stroke="black" cx="210" cy="-162" rx="28.0958" ry="18"/>
<text text-anchor="middle" x="210" y="-156.9" font-family="Times,serif" font-size="14.00">User</text>
</g>
<!-- League&#45;&gt;User -->
<g id="edge6" class="edge"><title>League&#45;&gt;User</title>
<path fill="none" stroke="black" d="M192.594,-206.758C194.862,-200.927 197.256,-194.771 199.519,-188.951"/>
<polygon fill="black" stroke="black" points="192.546,-206.882 184.727,-214.571 190.734,-211.542 188.921,-216.202 188.921,-216.202 188.921,-216.202 190.734,-211.542 193.115,-217.833 192.546,-206.882 192.546,-206.882"/>
<polygon fill="black" stroke="black" points="199.534,-188.913 207.352,-181.224 201.346,-184.253 203.158,-179.593 203.158,-179.593 203.158,-179.593 201.346,-184.253 198.964,-177.962 199.534,-188.913 199.534,-188.913"/>
</g>
<!-- Nominee&#45;&gt;Nomination -->
<g id="edge10" class="edge"><title>Nominee&#45;&gt;Nomination</title>
<path fill="none" stroke="black" d="M73,-61.5726C73,-56.018 73,-50.2114 73,-44.7148"/>
<polygon fill="black" stroke="black" points="73.0001,-61.8314 68.5,-71.8313 73,-66.8314 73,-71.8314 73,-71.8314 73,-71.8314 73,-66.8314 77.5,-71.8314 73.0001,-61.8314 73.0001,-61.8314"/>
<ellipse fill="black" stroke="black" cx="73" cy="-40.4133" rx="4" ry="4"/>
</g>
<!-- Selection&#45;&gt;Nomination -->
<g id="edge12" class="edge"><title>Selection&#45;&gt;Nomination</title>
<path fill="none" stroke="black" d="M151.348,-69.7529C136.79,-60.1365 119.404,-48.6519 104.712,-38.9473"/>
<ellipse fill="none" stroke="black" cx="155.011" cy="-72.1724" rx="4.00002" ry="4.00002"/>
<ellipse fill="black" stroke="black" cx="101.078" cy="-36.5468" rx="4.00002" ry="4.00002"/>
</g>
<!-- User&#45;&gt;Selection -->
<g id="edge14" class="edge"><title>User&#45;&gt;Selection</title>
<path fill="none" stroke="black" d="M199.434,-134.832C196.966,-128.483 194.345,-121.744 191.906,-115.472"/>
<polygon fill="black" stroke="black" points="199.454,-134.882 198.885,-145.833 201.266,-139.542 203.079,-144.202 203.079,-144.202 203.079,-144.202 201.266,-139.542 207.273,-142.571 199.454,-134.882 199.454,-134.882"/>
<ellipse fill="black" stroke="black" cx="190.389" cy="-111.571" rx="4.00001" ry="4.00001"/>
</g>
<!-- UserMailer -->
<g id="node7" class="node"><title>UserMailer</title>
<polygon fill="none" stroke="black" stroke-dasharray="1,5" points="320,-252 238,-252 238,-216 320,-216 320,-252"/>
<text text-anchor="middle" x="279" y="-228.9" font-family="Times,serif" font-size="14.00">UserMailer</text>
</g>
<!-- UserObserver -->
<g id="node8" class="node"><title>UserObserver</title>
<polygon fill="none" stroke="black" stroke-dasharray="1,5" points="432,-252 338,-252 338,-216 432,-216 432,-252"/>
<text text-anchor="middle" x="385" y="-228.9" font-family="Times,serif" font-size="14.00">UserObserver</text>
</g>
</g>
</svg>
