<?xml version="1.0" encoding="UTF-8" standalone="no"?>
<!DOCTYPE svg PUBLIC "-//W3C//DTD SVG 1.1//EN"
 "http://www.w3.org/Graphics/SVG/1.1/DTD/svg11.dtd">
<!-- Generated by graphviz version 2.26.0 (20091210.2329)
 -->
<!-- Title: models_diagram Pages: 1 -->
<svg width="523pt" height="548pt"
 viewBox="0.00 0.00 523.00 548.00" xmlns="http://www.w3.org/2000/svg" xmlns:xlink="http://www.w3.org/1999/xlink">
<g id="graph1" class="graph" transform="scale(1 1) rotate(0) translate(4 544)">
<title>models_diagram</title>
<polygon fill="white" stroke="white" points="-4,5 -4,-544 520,-544 520,5 -4,5"/>
<!-- Award -->
<g id="node1" class="node"><title>Award</title>
<polyline fill="none" stroke="black" points="11.5,-296.5 96.5,-296.5 "/>
<path fill="none" stroke="black" d="M96.5,-296.5C102.5,-296.5 108.5,-302.5 108.5,-308.5"/>
<polyline fill="none" stroke="black" points="108.5,-308.5 108.5,-345.5 "/>
<path fill="none" stroke="black" d="M108.5,-345.5C108.5,-351.5 102.5,-357.5 96.5,-357.5"/>
<polyline fill="none" stroke="black" points="96.5,-357.5 11.5,-357.5 "/>
<path fill="none" stroke="black" d="M11.5,-357.5C5.5,-357.5 -0.5,-351.5 -0.5,-345.5"/>
<polyline fill="none" stroke="black" points="-0.5,-345.5 -0.5,-308.5 "/>
<path fill="none" stroke="black" d="M-0.5,-308.5C-0.5,-302.5 5.5,-296.5 11.5,-296.5"/>
<text text-anchor="middle" x="54" y="-340.9" font-family="Times,serif" font-size="14.00">Award</text>
<polyline fill="none" stroke="black" points="-0.5,-334.5 108.5,-334.5 "/>
<text text-anchor="start" x="7.5" y="-317.9" font-family="Times,serif" font-size="14.00">name :string</text>
<text text-anchor="start" x="7.5" y="-302.9" font-family="Times,serif" font-size="14.00">description :text</text>
</g>
<!-- Nomination -->
<g id="node3" class="node"><title>Nomination</title>
<polyline fill="none" stroke="black" points="70.5,-1 131.5,-1 "/>
<path fill="none" stroke="black" d="M131.5,-1C137.5,-1 143.5,-7 143.5,-13"/>
<polyline fill="none" stroke="black" points="143.5,-13 143.5,-35 "/>
<path fill="none" stroke="black" d="M143.5,-35C143.5,-41 137.5,-47 131.5,-47"/>
<polyline fill="none" stroke="black" points="131.5,-47 70.5,-47 "/>
<path fill="none" stroke="black" d="M70.5,-47C64.5,-47 58.5,-41 58.5,-35"/>
<polyline fill="none" stroke="black" points="58.5,-35 58.5,-13 "/>
<path fill="none" stroke="black" d="M58.5,-13C58.5,-7 64.5,-1 70.5,-1"/>
<text text-anchor="middle" x="101" y="-30.4" font-family="Times,serif" font-size="14.00">Nomination</text>
<polyline fill="none" stroke="black" points="58.5,-24 143.5,-24 "/>
<text text-anchor="middle" x="101" y="-7.4" font-family="Times,serif" font-size="14.00"> </text>
</g>
<!-- Award&#45;&gt;Nomination -->
<g id="edge2" class="edge"><title>Award&#45;&gt;Nomination</title>
<path fill="none" stroke="black" d="M37.0512,-286.996C18.5833,-236.977 -4.41649,-149.919 27,-84 32.9484,-71.519 42.9025,-60.7914 53.6119,-52.0029"/>
<polygon fill="black" stroke="black" points="37.1074,-287.143 36.4616,-298.09 38.8871,-291.816 40.6669,-296.488 40.6669,-296.488 40.6669,-296.488 38.8871,-291.816 44.8722,-294.887 37.1074,-287.143 37.1074,-287.143"/>
<ellipse fill="black" stroke="black" cx="56.8218" cy="-49.5084" rx="4.00002" ry="4.00002"/>
</g>
<!-- Nominee -->
<g id="node4" class="node"><title>Nominee</title>
<polyline fill="none" stroke="black" points="48,-85 154,-85 "/>
<path fill="none" stroke="black" d="M154,-85C160,-85 166,-91 166,-97"/>
<polyline fill="none" stroke="black" points="166,-97 166,-179 "/>
<path fill="none" stroke="black" d="M166,-179C166,-185 160,-191 154,-191"/>
<polyline fill="none" stroke="black" points="154,-191 48,-191 "/>
<path fill="none" stroke="black" d="M48,-191C42,-191 36,-185 36,-179"/>
<polyline fill="none" stroke="black" points="36,-179 36,-97 "/>
<path fill="none" stroke="black" d="M36,-97C36,-91 42,-85 48,-85"/>
<text text-anchor="middle" x="101" y="-174.4" font-family="Times,serif" font-size="14.00">Nominee</text>
<polyline fill="none" stroke="black" points="36,-168 166,-168 "/>
<text text-anchor="start" x="44" y="-151.4" font-family="Times,serif" font-size="14.00">name :string</text>
<text text-anchor="start" x="44" y="-136.4" font-family="Times,serif" font-size="14.00">description :text</text>
<text text-anchor="start" x="44" y="-121.4" font-family="Times,serif" font-size="14.00">movie_name :string</text>
<text text-anchor="start" x="44" y="-106.4" font-family="Times,serif" font-size="14.00">first_name :string</text>
<text text-anchor="start" x="44" y="-91.4" font-family="Times,serif" font-size="14.00">last_name :string</text>
</g>
<!-- Award&#45;&gt;Nominee -->
<g id="edge4" class="edge"><title>Award&#45;&gt;Nominee</title>
<path fill="none" stroke="black" d="M64.0892,-286.428C70.271,-261.57 78.3137,-229.228 85.313,-201.082"/>
<polygon fill="black" stroke="black" points="64.0693,-286.509 57.289,-295.127 62.8626,-291.361 61.656,-296.213 61.656,-296.213 61.656,-296.213 62.8626,-291.361 66.023,-297.299 64.0693,-286.509 64.0693,-286.509"/>
<polygon fill="black" stroke="black" points="85.3271,-201.025 92.1075,-192.406 86.5338,-196.172 87.7405,-191.32 87.7405,-191.32 87.7405,-191.32 86.5338,-196.172 83.3735,-190.234 85.3271,-201.025 85.3271,-201.025"/>
</g>
<!-- League -->
<g id="node2" class="node"><title>League</title>
<polyline fill="none" stroke="black" points="206.5,-463 291.5,-463 "/>
<path fill="none" stroke="black" d="M291.5,-463C297.5,-463 303.5,-469 303.5,-475"/>
<polyline fill="none" stroke="black" points="303.5,-475 303.5,-527 "/>
<path fill="none" stroke="black" d="M303.5,-527C303.5,-533 297.5,-539 291.5,-539"/>
<polyline fill="none" stroke="black" points="291.5,-539 206.5,-539 "/>
<path fill="none" stroke="black" d="M206.5,-539C200.5,-539 194.5,-533 194.5,-527"/>
<polyline fill="none" stroke="black" points="194.5,-527 194.5,-475 "/>
<path fill="none" stroke="black" d="M194.5,-475C194.5,-469 200.5,-463 206.5,-463"/>
<text text-anchor="middle" x="249" y="-522.4" font-family="Times,serif" font-size="14.00">League</text>
<polyline fill="none" stroke="black" points="194.5,-516 303.5,-516 "/>
<text text-anchor="start" x="202.5" y="-499.4" font-family="Times,serif" font-size="14.00">name :string</text>
<text text-anchor="start" x="202.5" y="-484.4" font-family="Times,serif" font-size="14.00">passcode :string</text>
<text text-anchor="start" x="202.5" y="-469.4" font-family="Times,serif" font-size="14.00">description :text</text>
</g>
<!-- Selection -->
<g id="node5" class="node"><title>Selection</title>
<polyline fill="none" stroke="black" points="195.5,-115 242.5,-115 "/>
<path fill="none" stroke="black" d="M242.5,-115C248.5,-115 254.5,-121 254.5,-127"/>
<polyline fill="none" stroke="black" points="254.5,-127 254.5,-149 "/>
<path fill="none" stroke="black" d="M254.5,-149C254.5,-155 248.5,-161 242.5,-161"/>
<polyline fill="none" stroke="black" points="242.5,-161 195.5,-161 "/>
<path fill="none" stroke="black" d="M195.5,-161C189.5,-161 183.5,-155 183.5,-149"/>
<polyline fill="none" stroke="black" points="183.5,-149 183.5,-127 "/>
<path fill="none" stroke="black" d="M183.5,-127C183.5,-121 189.5,-115 195.5,-115"/>
<text text-anchor="middle" x="219" y="-144.4" font-family="Times,serif" font-size="14.00">Selection</text>
<polyline fill="none" stroke="black" points="183.5,-138 254.5,-138 "/>
<text text-anchor="middle" x="219" y="-121.4" font-family="Times,serif" font-size="14.00"> </text>
</g>
<!-- League&#45;&gt;Selection -->
<g id="edge8" class="edge"><title>League&#45;&gt;Selection</title>
<path fill="none" stroke="black" d="M209.8,-454.616C204.125,-445.625 199.146,-435.903 196,-426 167.399,-335.968 193.328,-222.535 209.034,-168.858"/>
<polygon fill="black" stroke="black" points="209.848,-454.688 211.68,-465.5 212.633,-458.841 215.417,-462.994 215.417,-462.994 215.417,-462.994 212.633,-458.841 219.155,-460.488 209.848,-454.688 209.848,-454.688"/>
<ellipse fill="black" stroke="black" cx="210.216" cy="-164.907" rx="4.00001" ry="4.00001"/>
</g>
<!-- User -->
<g id="node6" class="node"><title>User</title>
<polyline fill="none" stroke="black" points="216.5,-229 427.5,-229 "/>
<path fill="none" stroke="black" d="M427.5,-229C433.5,-229 439.5,-235 439.5,-241"/>
<polyline fill="none" stroke="black" points="439.5,-241 439.5,-413 "/>
<path fill="none" stroke="black" d="M439.5,-413C439.5,-419 433.5,-425 427.5,-425"/>
<polyline fill="none" stroke="black" points="427.5,-425 216.5,-425 "/>
<path fill="none" stroke="black" d="M216.5,-425C210.5,-425 204.5,-419 204.5,-413"/>
<polyline fill="none" stroke="black" points="204.5,-413 204.5,-241 "/>
<path fill="none" stroke="black" d="M204.5,-241C204.5,-235 210.5,-229 216.5,-229"/>
<text text-anchor="middle" x="322" y="-408.4" font-family="Times,serif" font-size="14.00">User</text>
<polyline fill="none" stroke="black" points="204.5,-402 439.5,-402 "/>
<text text-anchor="start" x="212.5" y="-385.4" font-family="Times,serif" font-size="14.00">login :string</text>
<text text-anchor="start" x="212.5" y="-370.4" font-family="Times,serif" font-size="14.00">name :string</text>
<text text-anchor="start" x="212.5" y="-355.4" font-family="Times,serif" font-size="14.00">email :string</text>
<text text-anchor="start" x="212.5" y="-340.4" font-family="Times,serif" font-size="14.00">crypted_password :string</text>
<text text-anchor="start" x="212.5" y="-325.4" font-family="Times,serif" font-size="14.00">salt :string</text>
<text text-anchor="start" x="212.5" y="-310.4" font-family="Times,serif" font-size="14.00">remember_token :string</text>
<text text-anchor="start" x="212.5" y="-295.4" font-family="Times,serif" font-size="14.00">remember_token_expires_at :datetime</text>
<text text-anchor="start" x="212.5" y="-280.4" font-family="Times,serif" font-size="14.00">activation_code :string</text>
<text text-anchor="start" x="212.5" y="-265.4" font-family="Times,serif" font-size="14.00">activated_at :datetime</text>
<text text-anchor="start" x="212.5" y="-250.4" font-family="Times,serif" font-size="14.00">state :string</text>
<text text-anchor="start" x="212.5" y="-235.4" font-family="Times,serif" font-size="14.00">deleted_at :datetime</text>
</g>
<!-- League&#45;&gt;User -->
<g id="edge6" class="edge"><title>League&#45;&gt;User</title>
<path fill="none" stroke="black" d="M268.934,-453.486C271.434,-447.527 274.066,-441.253 276.766,-434.819"/>
<polygon fill="black" stroke="black" points="268.889,-453.594 260.871,-461.074 266.955,-458.204 265.02,-462.815 265.02,-462.815 265.02,-462.815 266.955,-458.204 269.17,-464.556 268.889,-453.594 268.889,-453.594"/>
<polygon fill="black" stroke="black" points="276.893,-434.514 284.912,-427.034 278.828,-429.904 280.762,-425.293 280.762,-425.293 280.762,-425.293 278.828,-429.904 276.613,-423.552 276.893,-434.514 276.893,-434.514"/>
</g>
<!-- Nominee&#45;&gt;Nomination -->
<g id="edge10" class="edge"><title>Nominee&#45;&gt;Nomination</title>
<path fill="none" stroke="black" d="M101,-74.4489C101,-67.8872 101,-61.4429 101,-55.47"/>
<polygon fill="black" stroke="black" points="101,-74.6716 96.5,-84.6715 101,-79.6716 101,-84.6716 101,-84.6716 101,-84.6716 101,-79.6716 105.5,-84.6716 101,-74.6716 101,-74.6716"/>
<ellipse fill="black" stroke="black" cx="101" cy="-51.0975" rx="4" ry="4"/>
</g>
<!-- Selection&#45;&gt;Nomination -->
<g id="edge12" class="edge"><title>Selection&#45;&gt;Nomination</title>
<path fill="none" stroke="black" d="M196.465,-108.107C189.868,-99.9915 182.424,-91.4065 175,-84 163.935,-72.9613 150.955,-61.8964 138.982,-52.3288"/>
<ellipse fill="none" stroke="black" cx="199.294" cy="-111.651" rx="4.00002" ry="4.00002"/>
<ellipse fill="black" stroke="black" cx="135.593" cy="-49.6548" rx="4.00002" ry="4.00002"/>
</g>
<!-- User&#45;&gt;Selection -->
<g id="edge14" class="edge"><title>User&#45;&gt;Selection</title>
<path fill="none" stroke="black" d="M263.697,-220.017C253.386,-201.098 243.446,-182.858 235.569,-168.403"/>
<polygon fill="black" stroke="black" points="263.754,-220.121 264.588,-231.055 266.146,-224.511 268.539,-228.902 268.539,-228.902 268.539,-228.902 266.146,-224.511 272.49,-226.748 263.754,-220.121 263.754,-220.121"/>
<ellipse fill="black" stroke="black" cx="233.56" cy="-164.718" rx="4.00002" ry="4.00002"/>
</g>
<!-- UserMailer -->
<g id="node7" class="node"><title>UserMailer</title>
<polygon fill="none" stroke="black" stroke-dasharray="1,5" points="403,-519 321,-519 321,-483 403,-483 403,-519"/>
<text text-anchor="middle" x="362" y="-495.9" font-family="Times,serif" font-size="14.00">UserMailer</text>
</g>
<!-- UserObserver -->
<g id="node8" class="node"><title>UserObserver</title>
<polygon fill="none" stroke="black" stroke-dasharray="1,5" points="515,-519 421,-519 421,-483 515,-483 515,-519"/>
<text text-anchor="middle" x="468" y="-495.9" font-family="Times,serif" font-size="14.00">UserObserver</text>
</g>
</g>
</svg>
